<?xml version="1.0" encoding="utf-8"?>
<!-- Generator: Adobe Illustrator 22.0.0, SVG Export Plug-In . SVG Version: 6.00 Build 0)  -->
<svg version="1.1" id="Слой_1" xmlns="http://www.w3.org/2000/svg" xmlns:xlink="http://www.w3.org/1999/xlink" x="0px" y="0px"
	 viewBox="0 0 100 100" style="enable-background:new 0 0 100 100;" xml:space="preserve">
<style type="text/css">
	.st0{opacity:0.8;}
	.st1{fill:#FFFFFF;}
</style>
<g class="st0">
	<g>
		<g>
			<path class="st1" d="M29.9,45.9c3.3,0,5.9-2.7,5.9-5.9c0-3.3-2.7-5.9-5.9-5.9c-3.3,0-5.9,2.7-5.9,5.9
				C24,43.3,26.6,45.9,29.9,45.9z"/>
			<path class="st1" d="M41.5,73H41v-0.9c0.6-0.3,1-0.8,1.3-1.4c0-6.1-0.1-18.6-0.1-18.7c-0.7-3.1-2.7-5-5.6-5.6c0,0,0,0-0.1,0
				c0,0,0,0,0,0v0c-1.2,0-11.2,0-12,0c-0.5,0-0.9,0-1.4,0.1c-2.9,0.5-4.9,2.5-5.7,5.6c0,0.1-0.1,12.5-0.1,18.7
				c0.4,0.7,0.8,1.3,1.7,1.5c1.6,0.4,2.9-0.5,3-2.1c0-0.4,0-0.7,0-1.1c0-4.4,0-8.8,0-13.2c0-0.3,0-0.6,0-0.9c0.4,0,0.7,0,1.1,0l0,0
				c0,0.4,0,0.7,0,1c0,13.2,0,26.3,0,39.5c0,0.6,0,1.2,0.1,1.7c0.2,1.2,1.1,1.8,2.1,2.2c0.5,0,1.1,0,1.6,0c1.8-0.6,2.4-2,2.4-3.9
				c-0.1-7.4,0-14.9,0-22.3c0-0.3,0-0.6,0-1c0.4,0,0.7,0,1.1,0c0,0.3,0,0.6,0,1c0,7.4,0,14.8,0,22.2c0,1.9,0.6,3.3,2.4,4
				c0.5,0,1.1,0,1.6,0c1.8-0.7,2.4-2,2.4-3.9c0-5.8,0-11.6,0-17.4v-7.3v-16c0.3,0,0.5,0,0.9,0c0,0.3,0,0.6,0,0.9c0,4.4,0,8.8,0,13.2
				c0,0.4,0,0.7,0,1.1c0.1,1.2,0.8,1.9,1.8,2.2V73h-0.5c-0.9,0-1.7,0.8-1.7,1.9v12.3c0,1,0.7,1.8,1.7,1.8h2.7c0.9,0,1.7-0.8,1.7-1.8
				V74.9C43.2,73.9,42.4,73,41.5,73z M29.8,47.2h0.1h1.3l-0.8,2.1h-0.5h-0.1h-0.5l-0.8-2.1H29.8z M29.9,61.2L28.4,60l1-9.7h0.6h0.6
				l1,9.7L29.9,61.2z"/>
		</g>
		<g>
			<g>
				<g>
					<path class="st1" d="M82.3,19.2V13h-3.5c-0.1-0.5-0.3-0.9-0.5-1.4l2.8-2.1l-3.6-5l-2.8,2.1c-0.4-0.3-0.8-0.6-1.2-0.9l1.1-3.3
						l-5.8-1.9l-1.1,3.3c-0.2,0-0.5,0-0.7,0c-0.2,0-0.5,0-0.7,0l-1.1-3.3l-5.8,1.9l1.1,3.3c-0.4,0.3-0.8,0.5-1.2,0.9l-2.8-2.1
						l-3.6,5l2.8,2.1c-0.2,0.5-0.3,0.9-0.5,1.4h-3.5v6.1h3.5c0.1,0.5,0.3,0.9,0.5,1.4l-2.8,2.1l3.6,5l2.8-2.1
						c0.4,0.3,0.8,0.6,1.2,0.9l-1.1,3.3l5.8,1.9l1.1-3.3c0.2,0,0.5,0,0.7,0c0.2,0,0.5,0,0.7,0l1.1,3.3l5.8-1.9l-1.1-3.3
						c0.4-0.3,0.8-0.6,1.2-0.9l2.8,2.1l3.6-5l-2.8-2.1c0.2-0.5,0.3-0.9,0.5-1.4H82.3z M67,19.8c-2,0-3.7-1.6-3.7-3.7
						c0-2,1.6-3.7,3.7-3.7c2,0,3.7,1.6,3.7,3.7C70.7,18.1,69,19.8,67,19.8z"/>
				</g>
			</g>
		</g>
		<g>
			<path class="st1" d="M28.9,20.3L28.9,20.3L28.9,20.3c0.1,0,0.2,0,0.4,0c0,0,0.1,0,0.1,0c0.1,0,0.2,0,0.2-0.1c0,0,0.1,0,0.1-0.1
				c0.1,0,0.1-0.1,0.2-0.1c0,0,0.1-0.1,0.1-0.1c0,0,0.1,0,0.1-0.1c0,0,0.1-0.1,0.1-0.1c0,0,0,0,0.1-0.1l5-6.4
				c0.6-0.7,0.4-1.8-0.3-2.4c-0.7-0.6-1.8-0.4-2.4,0.3l-3.8,4.9L27,14.3c-0.6-0.7-1.7-0.7-2.4,0c-0.7,0.7-0.7,1.7,0,2.4l3.1,3.2
				c0,0,0.1,0.1,0.1,0.1c0,0,0.1,0.1,0.1,0.1c0,0,0,0,0.1,0c0,0,0.1,0,0.1,0.1c0.1,0,0.1,0.1,0.2,0.1c0,0,0.1,0,0.1,0
				c0.1,0,0.1,0,0.2,0.1c0,0,0.1,0,0.1,0C28.7,20.3,28.8,20.3,28.9,20.3z"/>
			<g>
				<path class="st1" d="M31.4,7.5C31.4,6.7,30.8,6,30,6c-0.8,0-1.4,0.6-1.4,1.4c0,0.8,0.6,1.4,1.4,1.4C30.8,8.9,31.4,8.2,31.4,7.5z
					"/>
				<path class="st1" d="M19.7,16.1c0,0.8,0.6,1.4,1.4,1.4c0.8,0,1.4-0.6,1.4-1.4c0-0.8-0.6-1.4-1.4-1.4
					C20.3,14.7,19.7,15.3,19.7,16.1z"/>
				<path class="st1" d="M38.2,17.5c0.8,0,1.4-0.6,1.4-1.4c0-0.8-0.6-1.4-1.4-1.4c-0.8,0-1.4,0.6-1.4,1.4
					C36.8,16.8,37.5,17.5,38.2,17.5z"/>
				<path class="st1" d="M40.1,4.4c-2.7-2.4-6.3-3.8-10.2-3.8c-3.9,0-7.5,1.4-10.2,3.8c-3.3,2.8-5.4,7-5.4,11.7
					c0,4.7,2.1,8.8,5.4,11.7c2.7,2.4,6.3,3.8,10.2,3.8c3.9,0,7.5-1.4,10.2-3.8c3.3-2.8,5.4-7,5.4-11.7C45.5,11.4,43.4,7.3,40.1,4.4z
					 M29.9,27.8c-6.4,0-11.7-5.2-11.8-11.6c0.1-6.4,5.3-11.6,11.8-11.6c6.4,0,11.7,5.2,11.8,11.6C41.6,22.5,36.3,27.8,29.9,27.8z"/>
				<path class="st1" d="M30,26.1c0.8,0,1.4-0.6,1.4-1.4c0-0.8-0.6-1.4-1.4-1.4c-0.8,0-1.4,0.6-1.4,1.4C28.6,25.5,29.3,26.1,30,26.1
					z"/>
			</g>
		</g>
		<g>
			<path class="st1" d="M66.6,45.9c3.3,0,5.9-2.7,5.9-5.9c0-3.3-2.7-5.9-5.9-5.9c-3.3,0-5.9,2.7-5.9,5.9
				C60.7,43.3,63.4,45.9,66.6,45.9z"/>
			<path class="st1" d="M78.3,73h-0.5v-0.9c0.6-0.3,1-0.8,1.3-1.4c0-6.1-0.1-18.6-0.1-18.7c-0.7-3.1-2.7-5-5.6-5.6c0,0,0,0-0.1,0
				c0,0,0,0,0,0v0c-1.2,0-11.2,0-12,0c-0.5,0-0.9,0-1.4,0.1c-2.9,0.5-4.9,2.5-5.7,5.6c0,0.1-0.1,12.5-0.1,18.7
				c0.4,0.7,0.8,1.3,1.7,1.5c1.6,0.4,2.9-0.5,3-2.1c0-0.4,0-0.7,0-1.1c0-4.4,0-8.8,0-13.2c0-0.3,0-0.6,0-0.9c0.4,0,0.7,0,1.1,0l0,0
				c0,0.4,0,0.7,0,1c0,13.2,0,26.3,0,39.5c0,0.6,0,1.2,0.1,1.7c0.2,1.2,1.1,1.8,2.1,2.2c0.5,0,1.1,0,1.6,0c1.8-0.6,2.4-2,2.4-3.9
				c-0.1-7.4,0-14.9,0-22.3c0-0.3,0-0.6,0-1c0.4,0,0.7,0,1.1,0c0,0.3,0,0.6,0,1c0,7.4,0,14.8,0,22.2c0,1.9,0.6,3.3,2.4,4
				c0.5,0,1.1,0,1.6,0c1.8-0.7,2.4-2,2.4-3.9c0-5.8,0-11.6,0-17.4v-7.3v-16c0.3,0,0.5,0,0.9,0c0,0.3,0,0.6,0,0.9c0,4.4,0,8.8,0,13.2
				c0,0.4,0,0.7,0,1.1c0.1,1.2,0.8,1.9,1.8,2.2V73h-0.5c-0.9,0-1.7,0.8-1.7,1.9v12.3c0,1,0.7,1.8,1.7,1.8h2.7c0.9,0,1.7-0.8,1.7-1.8
				V74.9C79.9,73.9,79.2,73,78.3,73z M66.6,47.2h0.1H68l-0.8,2.1h-0.5h-0.1h-0.5l-0.8-2.1H66.6z M66.6,61.2L65.1,60l1-9.7h0.6h0.6
				l1,9.7L66.6,61.2z"/>
		</g>
	</g>
</g>
</svg>
