<?xml version="1.0" encoding="utf-8"?>
<!-- Generator: Adobe Illustrator 22.0.0, SVG Export Plug-In . SVG Version: 6.00 Build 0)  -->
<svg version="1.1" id="Слой_1" xmlns="http://www.w3.org/2000/svg" xmlns:xlink="http://www.w3.org/1999/xlink" x="0px" y="0px"
	 viewBox="0 0 100 100" style="enable-background:new 0 0 100 100;" xml:space="preserve">
<style type="text/css">
	.st0{opacity:0.8;}
	.st1{fill:#ec4a4a;}
</style>
<g class="st0">
	<g>
		<path class="st1" d="M49.9,58.4c-9,0-16.3,7.3-16.3,16.3c0,9,7.3,16.3,16.3,16.3c9,0,16.3-7.3,16.3-16.3
			C66.2,65.7,58.9,58.4,49.9,58.4z M49.9,88.9c-7.8,0-14.2-6.4-14.2-14.2c0-7.8,6.4-14.2,14.2-14.2c7.8,0,14.2,6.4,14.2,14.2
			C64.2,82.5,57.8,88.9,49.9,88.9z"/>
		<g>
			<path class="st1" d="M55,72.9c-1.2,0-2.4,0-3.7,0v0.6l-0.8,1.6l-0.1,0.3l0.7,12.2c1.8-0.1,3.6-0.6,5.2-1.4c0-1.4,0-2.9,0-4.3
				c0-0.3,0-0.6,0-1c0.3,0,0.6,0,1,0c0,0.3,0,0.6,0,0.9c0,1.3,0,2.6,0,3.9c1.7-1,3.2-2.4,4.4-4c0-0.6,0-1.3,0-1.9
				C61.7,75.8,58.9,73,55,72.9z"/>
			<path class="st1" d="M49.2,75.1l-0.8-1.6v-0.6c-1.2,0-2.3,0-3.5,0c-3.4,0-5.8,2-6.6,5.3c0,0.1-0.1,0.2-0.1,0.3c0,0.9,0,1.8,0,2.8
				c1.1,1.7,2.6,3.2,4.4,4.3c0-1.3,0-2.6,0-3.8c0-0.3,0-0.5,0-0.8c0.4,0,0.6,0,1,0c0,0.3,0,0.7,0,1c0,1.4,0,2.8,0,4.3
				c1.5,0.8,3.2,1.3,5,1.5l0.7-12.2L49.2,75.1z"/>
			<path class="st1" d="M54.6,68.8c0.9-2.1,0.3-4.4-1.5-5.8c-0.6-0.5-1.5-0.8-2.2-1.1c-0.6,0-1.3,0-1.9,0c-0.2,0.1-0.4,0.2-0.7,0.3
				c-2.3,0.8-3.8,3.4-3.3,5.7c0.5,2.1,2.3,3.8,4.4,4C51.7,72,53.7,70.8,54.6,68.8z"/>
		</g>
	</g>
	<g>
		<g>
			<path class="st1" d="M20.4,15.6c-7.6,0-13.8,6.2-13.8,13.8c0,3.7,1.4,7,3.8,9.4c1.1,1.1,2.3,2.1,3.7,2.8c0.3,0.1,0.6,0.3,0.8,0.4
				c1.6,0.7,3.4,1.1,5.3,1.1l0,0l0,0c0,0,0,0,0,0l0,0l0,0c0,0,0.1,0,0.1,0c1.9,0,3.7-0.4,5.3-1.1c0.3-0.1,0.5-0.2,0.8-0.4
				c1.4-0.7,2.6-1.6,3.7-2.7c2.5-2.5,4-5.9,4-9.7C34.2,21.8,28,15.6,20.4,15.6z M26.5,39.8c-0.3,0.2-0.5,0.3-0.8,0.4
				c-1.3,0.7-2.8,1.1-4.4,1.2c-0.3,0-0.6,0-0.9,0c-0.4,0-0.9,0-1.3-0.1c-1.5-0.2-2.9-0.6-4.2-1.2c-0.3-0.1-0.6-0.3-0.8-0.5
				c-1.5-0.9-2.8-2.2-3.7-3.6c-1.3-1.9-2-4.2-2-6.6c0-6.6,5.4-12,12-12c6.6,0,12,5.4,12,12c0,2.6-0.8,5-2.2,6.9
				C29.2,37.7,27.9,38.9,26.5,39.8z"/>
			<g>
				<path class="st1" d="M24.6,28c-1,0-2.1,0-3.1,0v0.5l-0.7,1.3l-0.1,0.3l0.6,10.3c1.6-0.1,3-0.5,4.4-1.2c0-1.2,0-2.4,0-3.6
					c0-0.3,0-0.5,0-0.9c0.3,0,0.5,0,0.8,0c0,0.3,0,0.5,0,0.7c0,1.1,0,2.2,0,3.3c1.5-0.9,2.7-2,3.7-3.4c0-0.5,0-1.1,0-1.6
					C30.2,30.5,27.8,28.1,24.6,28z"/>
				<path class="st1" d="M19.6,29.8l-0.7-1.3V28c-1,0-2,0-2.9,0c-2.9,0-4.9,1.7-5.6,4.5c0,0.1-0.1,0.1-0.1,0.2c0,0.8,0,1.6,0,2.3
					c1,1.5,2.2,2.7,3.7,3.6c0-1.1,0-2.2,0-3.2c0-0.2,0-0.4,0-0.7c0.3,0,0.5,0,0.8,0c0,0.3,0,0.6,0,0.8c0,1.2,0,2.4,0,3.6
					c1.3,0.7,2.7,1.1,4.2,1.2l0.6-10.3L19.6,29.8z"/>
				<path class="st1" d="M24.2,24.5c0.7-1.8,0.3-3.7-1.3-4.9c-0.5-0.4-1.2-0.6-1.9-1c-0.5,0-1.1,0-1.6,0c-0.2,0.1-0.4,0.2-0.6,0.2
					c-2,0.7-3.2,2.8-2.8,4.9c0.4,1.8,1.9,3.2,3.7,3.4C21.7,27.3,23.5,26.2,24.2,24.5z"/>
			</g>
		</g>
		<g>
			<path class="st1" d="M49.7,15.6c-7.6,0-13.8,6.2-13.8,13.8c0,7.6,6.2,13.8,13.8,13.8c7.6,0,13.8-6.2,13.8-13.8
				C63.5,21.8,57.3,15.6,49.7,15.6z M49.7,41.4c-6.6,0-12-5.4-12-12c0-6.6,5.4-12,12-12s12,5.4,12,12C61.7,36,56.3,41.4,49.7,41.4z"
				/>
			<g>
				<path class="st1" d="M54,27.9c-1,0-2.1,0-3.1,0v0.5l-0.7,1.3L50.1,30l0.6,10.3c1.6-0.1,3-0.5,4.4-1.2c0-1.2,0-2.4,0-3.6
					c0-0.3,0-0.5,0-0.9c0.3,0,0.5,0,0.8,0c0,0.3,0,0.5,0,0.7c0,1.1,0,2.2,0,3.3c1.5-0.9,2.7-2,3.7-3.4c0-0.5,0-1.1,0-1.6
					C59.6,30.4,57.3,28,54,27.9z"/>
				<path class="st1" d="M49,29.7l-0.7-1.3v-0.5c-1,0-2,0-2.9,0c-2.9,0-4.9,1.7-5.6,4.5c0,0.1-0.1,0.1-0.1,0.2c0,0.8,0,1.6,0,2.3
					c1,1.5,2.2,2.7,3.7,3.6c0-1.1,0-2.2,0-3.2c0-0.2,0-0.4,0-0.7c0.3,0,0.5,0,0.8,0c0,0.3,0,0.6,0,0.8c0,1.2,0,2.4,0,3.6
					c1.3,0.7,2.7,1.1,4.2,1.2L49.1,30L49,29.7z"/>
				<path class="st1" d="M53.6,24.4c0.7-1.8,0.3-3.7-1.3-4.9c-0.5-0.4-1.2-0.6-1.9-1c-0.5,0-1.1,0-1.6,0c-0.2,0.1-0.4,0.2-0.6,0.2
					c-2,0.7-3.2,2.8-2.8,4.9c0.4,1.8,1.9,3.2,3.7,3.4C51.2,27.2,52.9,26.1,53.6,24.4z"/>
			</g>
		</g>
		<g>
			<path class="st1" d="M79.1,15.6c-7.6,0-13.8,6.2-13.8,13.8c0,3.7,1.4,7,3.8,9.4c1.1,1.1,2.3,2.1,3.7,2.8c0.3,0.1,0.6,0.3,0.8,0.4
				c1.6,0.7,3.4,1.1,5.3,1.1l0,0l0,0c0,0,0,0,0,0l0,0l0,0c0,0,0.1,0,0.1,0c1.9,0,3.7-0.4,5.3-1.1c0.3-0.1,0.5-0.2,0.8-0.4
				c1.4-0.7,2.6-1.6,3.7-2.7c2.5-2.5,4-5.9,4-9.7C92.8,21.8,86.7,15.6,79.1,15.6z M85.2,39.8c-0.3,0.2-0.5,0.3-0.8,0.4
				c-1.3,0.7-2.8,1.1-4.4,1.2c-0.3,0-0.6,0-0.9,0c-0.4,0-0.9,0-1.3-0.1c-1.5-0.2-2.9-0.6-4.2-1.2c-0.3-0.1-0.6-0.3-0.8-0.5
				C71.3,38.7,70,37.5,69,36c-1.3-1.9-2-4.2-2-6.6c0-6.6,5.4-12,12-12c6.6,0,12,5.4,12,12c0,2.6-0.8,5-2.2,6.9
				C87.9,37.7,86.6,38.9,85.2,39.8z"/>
			<g>
				<path class="st1" d="M83.2,28c-1,0-2.1,0-3.1,0v0.5l-0.7,1.3l-0.1,0.3L80,40.4c1.6-0.1,3-0.5,4.4-1.2c0-1.2,0-2.4,0-3.6
					c0-0.3,0-0.5,0-0.9c0.3,0,0.5,0,0.8,0c0,0.3,0,0.5,0,0.7c0,1.1,0,2.2,0,3.3c1.5-0.9,2.7-2,3.7-3.4c0-0.5,0-1.1,0-1.6
					C88.9,30.5,86.5,28.1,83.2,28z"/>
				<path class="st1" d="M78.3,29.8l-0.7-1.3V28c-1,0-2,0-2.9,0c-2.9,0-4.9,1.7-5.6,4.5c0,0.1-0.1,0.1-0.1,0.2c0,0.8,0,1.6,0,2.3
					c1,1.5,2.2,2.7,3.7,3.6c0-1.1,0-2.2,0-3.2c0-0.2,0-0.4,0-0.7c0.3,0,0.5,0,0.8,0c0,0.3,0,0.6,0,0.8c0,1.2,0,2.4,0,3.6
					c1.3,0.7,2.7,1.1,4.2,1.2l0.6-10.3L78.3,29.8z"/>
				<path class="st1" d="M82.9,24.5c0.7-1.8,0.3-3.7-1.3-4.9c-0.5-0.4-1.2-0.6-1.9-1c-0.5,0-1.1,0-1.6,0c-0.2,0.1-0.4,0.2-0.6,0.2
					c-2,0.7-3.2,2.8-2.8,4.9c0.4,1.8,1.9,3.2,3.7,3.4C80.4,27.3,82.2,26.2,82.9,24.5z"/>
			</g>
		</g>
	</g>
	<polygon class="st1" points="77.5,46.9 77.5,52.2 51.8,52.2 51.8,46.9 48.6,46.9 48.6,52.2 21.3,52.2 21.3,46.9 18.1,46.9 
		18.1,53.9 18.1,53.9 18.1,55.5 48.6,55.5 48.6,57.2 51.8,57.2 51.8,55.5 80.7,55.5 80.7,53.9 80.7,52.2 80.7,46.9 	"/>
</g>
</svg>
