<?xml version="1.0" encoding="utf-8"?>
<!-- Generator: Adobe Illustrator 22.0.0, SVG Export Plug-In . SVG Version: 6.00 Build 0)  -->
<svg version="1.1" id="Слой_1" xmlns="http://www.w3.org/2000/svg" xmlns:xlink="http://www.w3.org/1999/xlink" x="0px" y="0px"
	 viewBox="0 0 100 100" style="enable-background:new 0 0 100 100;" xml:space="preserve">
<style type="text/css">
	.st0{opacity:0.8;}
	.st1{fill:#ec4a4a;}
</style>
<g class="st0">
	<polygon class="st1" points="87.3,49.4 87.8,49.8 87.8,49.3 	"/>
	<g>
		<path class="st1" d="M37.1,64C37,63.6,37,63.2,37,62.8c0-5,0-10,0-15c0-0.3,0-0.7,0-1.1c-0.4,0-0.8,0-1.2,0c0,0.4,0,0.8,0,1.2
			c0,5.7,0,11.3,0,17l2.3,0.9C37.6,65.5,37.2,64.9,37.1,64z"/>
		<path class="st1" d="M35.9,62.3c0-5.7,0-11.3,0-17c0-0.4,0-0.8,0-1.2c0.4,0,0.7,0,1.2,0c0,0.4,0,0.7,0,1.1c0,5,0,10,0,15
			c0,0.4,0,0.8,0.1,1.2c0.1,0.8,0.5,1.4,1,1.8l1,0.4c0.2,0,0.4,0,0.7,0c1.4-0.1,2.4-1.1,2.4-2.6c0-4.1,0-8.3,0-12.4c0-2,0-4,0-5.9
			c0-4.7-3.3-8.1-8-8.1c-1.5,0-2.9,0-4.4,0v0.7L29,37.1l-0.1,0.4L29.7,53l-1.6,1.8l0,0l0,0L26.5,53l0.9-15.4l-0.1-0.4l-0.9-1.9v-0.7
			c-1.4,0-2.8,0-4.2,0c-4.1,0-7,2.4-7.9,6.4c0,0.1-0.1,0.2-0.1,0.3c0,6.9,0,13.7,0,20.6c0.5,0.8,0.9,1.5,1.9,1.7
			c1.8,0.4,3.2-0.6,3.4-2.4c0-0.4,0-0.8,0-1.2c0-4.9,0-9.9,0-14.8c0-0.3,0-0.6,0-1c0.4,0,0.8,0,1.2,0c0,0.4,0,0.8,0,1.2
			c0,6.9,0,13.7,0,20.6l6.8-6.7L35.9,62.3z"/>
		<path class="st1" d="M27.6,33.2c2.7,0.2,5.2-1.2,6.2-3.7c1-2.5,0.4-5.3-1.8-7c-0.8-0.6-1.8-0.9-2.6-1.4c-0.8,0-1.5,0-2.3,0
			c-0.3,0.1-0.5,0.3-0.8,0.4c-2.8,0.9-4.6,4-3.9,6.9C22.9,31,25.1,33,27.6,33.2z"/>
		<path class="st1" d="M93.3,42.6l-18.1,1.7l0.6,6.1l7.4-0.7l-10,11.4L68,59.5l-7.8-2.4l-7.5,7.9l-4.4,4.6l-9.2-3.4
			c-0.4-0.1-0.7-0.2-1-0.4L35.8,65l-8.5-3.2l-6.8,6.7L7.2,81.8l4.8,4.8l8.6-8.5l7-6.9l1.2-1.2l0.3-0.3l6.8,2.6l14.3,5.4l2.5-2.7
			l7-7.4l1.2-1.3l1.3-1.4l5.8,1.8l7.5,2.3l12.8-14.6l0.6,6.4l6.1-0.6L93.3,42.6z"/>
		<path class="st1" d="M39.2,66.2l-1-0.4C38.4,66.1,38.8,66.2,39.2,66.2z"/>
		<path class="st1" d="M74.4,35.5c0-4.7-3.3-8.1-8-8.1c-1.5,0-2.9,0-4.4,0V28l-0.9,1.9L61,30.3l0.9,15.4l-1.6,1.8l0,0l0,0l-1.6-1.8
			l0.9-15.4l-0.1-0.4L58.5,28v-0.7c-1.4,0-2.8,0-4.2,0c-4.1,0-6.9,2.4-7.9,6.4c0,0.1-0.1,0.2-0.1,0.3c0,6.9,0,13.7,0,20.6
			c0.5,0.8,0.9,1.5,1.9,1.7c1.8,0.4,3.2-0.6,3.4-2.4c0-0.4,0-0.8,0-1.2c0-4.9,0-9.9,0-14.8c0-0.3,0-0.6,0-1c0.4,0,0.8,0,1.2,0
			c0,0.4,0,0.8,0,1.2c0,8.1,0,16.2,0,24.3l7.5-7.9l7.8,2.4c0-6.2,0-12.5,0-18.7c0-0.4,0-0.8,0-1.2c0.4,0,0.7,0,1.1,0
			c0,0.4,0,0.7,0,1.1c0,5,0,10,0,15c0,0.4,0,0.8,0.1,1.2c0.2,1.5,1.3,2.3,2.8,2.2c1.4-0.1,2.4-1.1,2.4-2.6c0-4.1,0-8.3,0-12.4
			C74.4,39.5,74.4,37.5,74.4,35.5z"/>
		<path class="st1" d="M59.7,26c2.7,0.2,5.2-1.2,6.2-3.7c1-2.5,0.4-5.3-1.8-7c-0.8-0.6-1.7-0.9-2.6-1.4c-0.8,0-1.5,0-2.3,0
			c-0.3,0.1-0.5,0.3-0.8,0.3c-2.8,0.9-4.6,4-3.9,6.9C55,23.8,57.2,25.8,59.7,26z"/>
	</g>
</g>
</svg>
