<?xml version="1.0" encoding="utf-8"?>
<!-- Generator: Adobe Illustrator 22.0.0, SVG Export Plug-In . SVG Version: 6.00 Build 0)  -->
<svg version="1.1" id="Слой_1" xmlns="http://www.w3.org/2000/svg" xmlns:xlink="http://www.w3.org/1999/xlink" x="0px" y="0px"
	 viewBox="0 0 100 100" style="enable-background:new 0 0 100 100;" xml:space="preserve">
<style type="text/css">
	.st0{opacity:0.8;}
	.st1{fill:#ec4a4a;}
</style>
<g class="st0">
	<g>
		<g>
			<polygon class="st1" points="40.1,87.9 49.7,99.5 59.4,87.9 54.9,87.9 54.9,75.9 44.6,75.9 44.6,87.9 			"/>
			<polygon class="st1" points="22.6,63.1 7.8,70.5 22.6,77.9 22.6,74.4 38,74.4 38,66.6 22.6,66.6 			"/>
			<polygon class="st1" points="76.9,77.9 91.7,70.6 76.9,63.1 76.9,66.6 61.6,66.6 61.6,74.4 76.9,74.4 			"/>
		</g>
	</g>
	<g>
		<g>
			<path class="st1" d="M67.7,15.4c0,3.7,2.9,6.7,6.6,6.7c3.6,0,6.6-3,6.6-6.7c0-2.8-2.6-6.1-5-7.1l0.9-0.6l2.2-2.2
				c0,0,0.9-3-1.7-0.6c-2.6,2.4-7.4-1.2-7.6-0.6C69.4,4.8,72.2,8,72.2,8l0.7,0.7C70.1,9.5,67.7,12.3,67.7,15.4z M74.3,14.7
				c-1.2-0.3-2-0.8-2-1.7c0-0.8,0.7-1.5,1.9-1.7v-0.9h1.1v0.8c0.7,0,1.2,0.2,1.6,0.3l-0.3,1.1c-0.3-0.1-0.8-0.3-1.6-0.3
				c-0.7,0-1,0.3-1,0.5c0,0.3,0.4,0.5,1.3,0.8c1.3,0.4,1.8,0.9,1.8,1.7c0,0.8-0.7,1.5-2,1.7v0.9h-1.1v-0.9c-0.7,0-1.5-0.2-1.9-0.4
				l0.3-1.1c0.5,0.2,1.1,0.4,1.8,0.4c0.6,0,1.1-0.2,1.1-0.6C75.5,15.2,75.1,14.9,74.3,14.7z"/>
		</g>
		<g>
			<path class="st1" d="M49.1,12.6c2.6,0.2,4.9-1.2,5.9-3.5c1-2.4,0.4-5.1-1.7-6.7c-0.7-0.6-1.7-0.9-2.5-1.3c-0.7,0-1.5,0-2.2,0
				c-0.2,0.1-0.5,0.2-0.7,0.3c-2.7,0.9-4.4,3.9-3.8,6.6C44.6,10.5,46.7,12.4,49.1,12.6z"/>
			<path class="st1" d="M76.5,23.9L66,23.1l-8.2-8.3c-0.2-0.2-0.4-0.4-0.7-0.5c-0.2-0.1-0.4-0.2-0.6-0.2c-0.3-0.1-0.6-0.1-1-0.1
				c-1.4,0-2.8,0-4.1,0v0.7l-0.9,1.8l-0.1,0.4l0.9,14.8l-1.5,1.7l0,0l0,0l-1.5-1.7L49,16.8l-0.1-0.4l-0.9-1.8v-0.7
				c-1.1,0-2.2,0-3.3,0c-0.2,0-0.4,0-0.6,0c-0.3,0-0.5,0-0.7,0c-0.3,0.1-0.5,0.2-0.7,0.3c-0.2,0.1-0.3,0.2-0.4,0.4L33.8,23
				l-10.5,0.8c-1.5,0.1-2.7,1.5-2.5,3c0.1,1.5,1.3,2.6,2.8,2.6c0.1,0,0.1,0,0.2,0l11.5-0.9c0.7-0.1,1.3-0.3,1.8-0.8l5.5-5.5v44.3
				c0,0.6,0,1.2,0.1,1.9c0.3,1.3,1.2,1.9,2.3,2.4c0.6,0,1.1,0,1.7,0c2-0.7,2.6-2.1,2.6-4.1c-0.1-8,0-15.9,0-23.9c0-0.3,0-0.7,0-1
				c0.4,0,0.7,0,1.2,0c0,0.4,0,0.7,0,1c0,7.9,0,15.9,0,23.8c0,2,0.6,3.5,2.6,4.2c0.6,0,1.1,0,1.7,0c2-0.7,2.5-2.2,2.5-4.2
				c0-14.1,0-28.2,0-42.3c0-0.4,0-0.7,0-1.2v-1.1l5.7,5.8c0.5,0.5,1.1,0.8,1.8,0.8L76,29.4c0.1,0,0.1,0,0.2,0c1.4,0,2.6-1.1,2.8-2.6
				C79.1,25.3,78,24,76.5,23.9z"/>
		</g>
		<g>
			<g>
				<g>
					<path class="st1" d="M31.9,16.3v-2.6h-1.5c-0.1-0.2-0.1-0.4-0.2-0.6l1.2-0.9L29.8,10l-1.2,0.9c-0.2-0.1-0.3-0.3-0.5-0.4
						l0.5-1.4l-2.5-0.8l-0.5,1.4c-0.1,0-0.2,0-0.3,0c-0.1,0-0.2,0-0.3,0l-0.5-1.4L22,9.1l0.5,1.4c-0.2,0.1-0.4,0.2-0.5,0.4L20.7,10
						l-1.6,2.1l1.2,0.9c-0.1,0.2-0.1,0.4-0.2,0.6h-1.5v2.6h1.5c0.1,0.2,0.1,0.4,0.2,0.6l-1.2,0.9l1.6,2.1l1.2-0.9
						c0.2,0.1,0.3,0.3,0.5,0.4L22,20.8l2.5,0.8l0.5-1.4c0.1,0,0.2,0,0.3,0c0.1,0,0.2,0,0.3,0l0.5,1.4l2.5-0.8l-0.5-1.4
						c0.2-0.1,0.4-0.2,0.5-0.4l1.2,0.9l1.6-2.1l-1.2-0.9c0.1-0.2,0.1-0.4,0.2-0.6H31.9z M25.3,16.5c-0.9,0-1.6-0.7-1.6-1.6
						c0-0.9,0.7-1.6,1.6-1.6c0.9,0,1.6,0.7,1.6,1.6C26.9,15.8,26.2,16.5,25.3,16.5z"/>
				</g>
			</g>
		</g>
	</g>
</g>
</svg>
