<?xml version="1.0" encoding="utf-8"?>
<!-- Generator: Adobe Illustrator 22.0.0, SVG Export Plug-In . SVG Version: 6.00 Build 0)  -->
<svg version="1.1" id="Слой_1" xmlns="http://www.w3.org/2000/svg" xmlns:xlink="http://www.w3.org/1999/xlink" x="0px" y="0px"
	 viewBox="0 0 100 100" style="enable-background:new 0 0 100 100;" xml:space="preserve">
<style type="text/css">
	.st0{opacity:0.8;}
	.st1{fill:#FFFFFF;}
</style>
<g class="st0">
	<g>
		<path class="st1" d="M58.8,48c-2.4,0-4.7-0.1-7.1-0.1V49l-1.5,3.1l-0.2,0.6l1.4,23.7c3.6-0.3,7-1.2,10-2.8c0-2.8,0-5.6,0-8.3
			c0-0.6,0-1.2,0-2c0.6,0,1.2,0,1.9,0c0,0.6,0,1.1,0,1.7c0,2.5,0,5.1,0,7.6c3.4-2,6.2-4.7,8.5-7.8c0-1.2,0-2.5,0-3.7
			C71.7,53.5,66.3,48.1,58.8,48z"/>
		<path class="st1" d="M47.4,52.1L45.9,49v-1.1c-2.2,0-4.5,0-6.7,0c-6.7,0.1-11.2,3.8-12.8,10.3c0,0.2-0.2,0.3-0.2,0.5
			c0,1.8,0,3.6,0,5.4c2.2,3.4,5.1,6.2,8.6,8.3c0-2.5,0-5,0-7.4c0-0.5,0-1,0-1.6c0.7,0,1.2,0,1.9,0c0,0.7,0,1.3,0,1.9
			c0,2.8,0,5.5,0,8.3c2.9,1.5,6.2,2.5,9.6,2.9l1.4-23.6L47.4,52.1z"/>
		<path class="st1" d="M58,39.9c1.7-4,0.6-8.6-2.9-11.3c-1.2-1-2.8-1.5-4.3-2.2c-1.2,0-2.5,0-3.7,0c-0.4,0.2-0.8,0.4-1.3,0.6
			c-4.5,1.5-7.4,6.5-6.4,11.1c0.9,4.1,4.5,7.4,8.5,7.7C52.3,46.2,56.3,43.8,58,39.9z"/>
	</g>
	<g>
		<g>
			<path class="st1" d="M49,20.8c14.6,0,26.7,10.7,28.8,24.7h-6.4l11.2,18l11.2-18h-7c-2.2-19-18.4-33.7-37.9-33.7
				c-13.7,0-25.8,7.3-32.5,18.2l5.5,8.8C26.5,28.3,36.9,20.8,49,20.8z"/>
			<path class="st1" d="M81.5,70.1L76,61.2c-4.4,10.6-14.8,18-27,18c-14.6,0-26.7-10.7-28.8-24.7h6.4l-11.2-18l-11.2,18h7
				c2.2,19,18.4,33.7,37.9,33.7C62.8,88.3,74.8,81,81.5,70.1z"/>
		</g>
	</g>
</g>
</svg>
