<?xml version="1.0" encoding="utf-8"?>
<!-- Generator: Adobe Illustrator 22.0.0, SVG Export Plug-In . SVG Version: 6.00 Build 0)  -->
<svg version="1.1" id="Слой_1" xmlns="http://www.w3.org/2000/svg" xmlns:xlink="http://www.w3.org/1999/xlink" x="0px" y="0px"
	 viewBox="0 0 100 100" style="enable-background:new 0 0 100 100;" xml:space="preserve">
<style type="text/css">
	.st0{opacity:0.8;}
	.st1{fill:#ec4a4a;}
</style>
<g class="st0">
	<path class="st1" d="M86.2,84.3c-5.4,0-9.8-1.8-9.8-3.9v3.9c0,2.2,4.4,3.9,9.8,3.9c5.4,0,9.8-1.8,9.8-3.9v-3.9
		C96.1,82.6,91.7,84.3,86.2,84.3z"/>
	<g>
		<path class="st1" d="M9.8,33.6c0-0.4,0-0.7,0-1.2c0.5,0,0.9,0,1.4,0c0,0.5,0,0.9,0,1.4c0,17.2,0,34.3,0,51.5c0,0.8,0,1.5,0.2,2.3
			c0.3,1.5,1.5,2.3,2.8,2.9c0.7,0,1.4,0,2.1,0c2.4-0.8,3.2-2.6,3.2-5c-0.1-9.7,0-19.4,0-29.1c0-0.4,0-0.8,0-1.3c0.5,0,0.9,0,1.4,0
			c0,0.4,0,0.8,0,1.3c0,9.7,0,19.3,0,29c0,2.5,0.7,4.3,3.1,5.2c0.7,0,1.4,0,2.1,0c2.4-0.9,3.1-2.7,3.1-5.1c0-17.2,0-34.3,0-51.5
			c0-0.4,0-0.9,0-1.4c0.2-0.5,0.5-3.5,0.7-4.3c0.7,0.4,1.1,0.6,1.1,0.6c0.4,0.2,0.7,0.4,1.1,0.6c5.1,2.8,10.2,5.7,15.2,8.5
			c0.4,0.2,0.9,0.5,1.3,0.6c1.6,0.6,3.1,0,3.8-1.6c0.7-1.5,0.2-3-1.2-3.9c-4.2-2.4-8.4-4.7-12.6-7c-2-1.1-4-2.3-6-3.4
			c-1.9-1-3.9-1.5-5.8-1.3c-1.5,0-3.1,0-4.6,0v0.8L21,24.3l-0.2,0.5l1.1,18L20,44.8l0,0l0,0l-1.9-2.1l1.1-18L19,24.3l-1.1-2.2v-0.8
			c-1.6,0-3.2,0-4.8,0c-4.8,0-8.1,2.7-9.2,7.4c0,0.1-0.1,0.2-0.2,0.4c0,8,0,16,0,24c0.5,0.9,1.1,1.7,2.2,2c2.1,0.5,3.7-0.7,4-2.8
			c0-0.5,0-1,0-1.4C9.8,45.1,9.8,39.3,9.8,33.6z"/>
		<path class="st1" d="M20.7,19.8c3.1,0.3,6-1.4,7.2-4.3c1.2-2.9,0.4-6.2-2.1-8.2c-0.9-0.7-2-1.1-3.1-1.6c-0.9,0-1.8,0-2.7,0
			c-0.3,0.1-0.6,0.3-0.9,0.4c-3.3,1.1-5.3,4.7-4.6,8C15.2,17.2,17.8,19.5,20.7,19.8z"/>
		<g>
			<path class="st1" d="M42.9,69.6c-5.4,0-9.8-1.8-9.8-3.9v3.9c0,2.2,4.4,3.9,9.8,3.9c5.4,0,9.8-1.8,9.8-3.9v-3.9
				C52.7,67.8,48.3,69.6,42.9,69.6z"/>
			<path class="st1" d="M42.9,74.7c-5.4,0-9.8-1.8-9.8-3.9v3.9c0,2.2,4.4,3.9,9.8,3.9c5.4,0,9.8-1.8,9.8-3.9v-3.9
				C52.7,72.9,48.3,74.7,42.9,74.7z"/>
			<path class="st1" d="M42.9,79.8c-5.4,0-9.8-1.8-9.8-3.9v3.9c0,2.2,4.4,3.9,9.8,3.9c5.4,0,9.8-1.8,9.8-3.9v-3.9
				C52.7,78.1,48.3,79.8,42.9,79.8z"/>
			<path class="st1" d="M42.9,84.9c-5.4,0-9.8-1.8-9.8-3.9v3.9c0,2.2,4.4,3.9,9.8,3.9c5.4,0,9.8-1.8,9.8-3.9V81
				C52.7,83.2,48.3,84.9,42.9,84.9z"/>
			<path class="st1" d="M42.9,56.6c-5.4,0-9.8,1.8-9.8,3.9v3.9c0,2.2,4.4,3.9,9.8,3.9c5.4,0,9.8-1.8,9.8-3.9v-3.9
				C52.7,58.4,48.3,56.6,42.9,56.6z M42.9,63.5c-5.4,0-8.9-1.8-8.9-3c0-1.2,3.5-3,8.9-3c5.4,0,8.9,1.7,8.9,3
				C51.7,61.7,48.3,63.5,42.9,63.5z"/>
			<path class="st1" d="M43.6,60.1c-1.1-0.2-1.6-0.3-1.6-0.5c0-0.2,0.3-0.3,1.2-0.3c1,0,1.6,0.1,1.9,0.2l0.4-0.6
				c-0.4-0.1-1-0.2-1.9-0.2v-0.5h-1.3v0.5c-1.4,0.1-2.3,0.5-2.3,1c0,0.6,1,0.8,2.4,1c1,0.1,1.4,0.3,1.4,0.5c0,0.2-0.5,0.4-1.3,0.4
				c-0.9,0-1.7-0.1-2.2-0.3L39.9,62c0.5,0.1,1.4,0.2,2.3,0.2v0.5h1.3v-0.6c1.5-0.1,2.4-0.5,2.4-1.1C45.8,60.6,45.2,60.3,43.6,60.1z"
				/>
			<path class="st1" d="M64.6,74.7c-5.4,0-9.8-1.8-9.8-3.9v3.9c0,2.2,4.4,3.9,9.8,3.9c5.4,0,9.8-1.8,9.8-3.9v-3.9
				C74.5,72.9,70.1,74.7,64.6,74.7z"/>
			<path class="st1" d="M64.6,79.8c-5.4,0-9.8-1.8-9.8-3.9v3.9c0,2.2,4.4,3.9,9.8,3.9c5.4,0,9.8-1.8,9.8-3.9v-3.9
				C74.5,78.1,70.1,79.8,64.6,79.8z"/>
			<path class="st1" d="M64.6,84.9c-5.4,0-9.8-1.8-9.8-3.9v3.9c0,2.2,4.4,3.9,9.8,3.9c5.4,0,9.8-1.8,9.8-3.9V81
				C74.5,83.2,70.1,84.9,64.6,84.9z"/>
			<path class="st1" d="M64.6,61.7c-5.4,0-9.8,1.8-9.8,3.9v3.9c0,2.2,4.4,3.9,9.8,3.9c5.4,0,9.8-1.8,9.8-3.9v-3.9
				C74.5,63.5,70.1,61.7,64.6,61.7z M64.6,68.6c-5.4,0-8.9-1.8-8.9-3c0-1.2,3.5-3,8.9-3c5.4,0,8.9,1.7,8.9,3
				C73.5,66.9,70,68.6,64.6,68.6z"/>
			<path class="st1" d="M65.4,65.2c-1.1-0.2-1.6-0.3-1.6-0.5c0-0.2,0.3-0.3,1.2-0.3c1,0,1.6,0.1,1.9,0.2l0.4-0.6
				c-0.4-0.1-1-0.2-1.9-0.2v-0.5H64v0.5c-1.4,0.1-2.3,0.5-2.3,1c0,0.6,1,0.8,2.4,1c1,0.1,1.4,0.3,1.4,0.5c0,0.2-0.5,0.4-1.3,0.4
				c-0.9,0-1.7-0.1-2.2-0.2l-0.4,0.7c0.5,0.1,1.4,0.2,2.3,0.2v0.5h1.3v-0.6c1.5-0.1,2.4-0.6,2.4-1.1C67.6,65.8,67,65.5,65.4,65.2z"
				/>
		</g>
		<path class="st1" d="M86.2,71.4c-5.4,0-9.8,1.8-9.8,3.9v3.9c0,2.2,4.4,3.9,9.8,3.9c5.4,0,9.8-1.8,9.8-3.9v-3.9
			C96.1,73.1,91.7,71.4,86.2,71.4z M86.2,78.3c-5.4,0-8.9-1.7-8.9-3c0-1.2,3.5-3,8.9-3c5.4,0,8.9,1.8,8.9,3
			C95.1,76.5,91.6,78.3,86.2,78.3z"/>
		<path class="st1" d="M87,74.9c-1.1-0.2-1.6-0.3-1.6-0.5c0-0.2,0.3-0.3,1.1-0.3c1,0,1.6,0.1,1.9,0.2l0.4-0.6
			c-0.4-0.1-1-0.2-1.9-0.2v-0.5h-1.3v0.5c-1.4,0.1-2.3,0.5-2.3,1c0,0.6,1,0.8,2.4,1c1,0.1,1.4,0.3,1.4,0.5c0,0.2-0.5,0.4-1.3,0.4
			c-0.9,0-1.7-0.1-2.2-0.2l-0.4,0.7c0.5,0.1,1.4,0.2,2.3,0.2v0.5h1.3V77c1.5-0.1,2.4-0.5,2.4-1.1C89.2,75.4,88.6,75.1,87,74.9z"/>
	</g>
</g>
</svg>
