<?xml version="1.0" encoding="utf-8"?>
<!-- Generator: Adobe Illustrator 22.0.0, SVG Export Plug-In . SVG Version: 6.00 Build 0)  -->
<svg version="1.1" id="Слой_1" xmlns="http://www.w3.org/2000/svg" xmlns:xlink="http://www.w3.org/1999/xlink" x="0px" y="0px"
	 viewBox="0 0 100 100" style="enable-background:new 0 0 100 100;" xml:space="preserve">
<style type="text/css">
	.st0{opacity:0.8;}
	.st1{fill:#ec4a4a;}
</style>
<g class="st0">
	<g>
		<g>
			<path class="st1" d="M27.6,71.7c0-0.1,0-0.3,0-0.4c0.2,0,0.3,0,0.5,0c0,0.2,0,0.3,0,0.5c0,6.1,0,12.1,0,18.2c0,0.3,0,0.5,0.1,0.8
				c0.1,0.5,0.5,0.8,1,1c0.2,0,0.5,0,0.7,0c0.8-0.3,1.1-0.9,1.1-1.8c0-3.4,0-6.9,0-10.3c0-0.1,0-0.3,0-0.5c0.2,0,0.3,0,0.5,0
				c0,0.2,0,0.3,0,0.4c0,3.4,0,6.8,0,10.2c0,0.9,0.3,1.5,1.1,1.8c0.2,0,0.5,0,0.7,0c0.8-0.3,1.1-0.9,1.1-1.8c0-6.1,0-12.1,0-18.2
				c0-0.2,0-0.3,0-0.5c0.2,0,0.3,0,0.5,0c0,0.2,0,0.3,0,0.4c0,2.1,0,4.1,0,6.2c0,0.2,0,0.3,0,0.5c0.1,0.6,0.5,1,1.1,0.9
				c0.6,0,1-0.4,1-1.1c0-1.7,0-3.4,0-5.1c0-0.8,0-1.6,0-2.4c0-1.9-1.4-3.3-3.3-3.3c-0.6,0-1.2,0-1.8,0v0.3l-0.4,0.8l-0.1,0.2
				l0.4,6.4l-0.7,0.7l0,0l0,0l-0.7-0.7l0.4-6.4l-0.1-0.2l-0.4-0.8v-0.3c-0.6,0-1.1,0-1.7,0c-1.7,0-2.9,1-3.3,2.6c0,0,0,0.1-0.1,0.1
				c0,2.8,0,5.6,0,8.5c0.2,0.3,0.4,0.6,0.8,0.7c0.7,0.2,1.3-0.2,1.4-1c0-0.2,0-0.3,0-0.5C27.6,75.7,27.6,73.7,27.6,71.7z"/>
			<path class="st1" d="M31,66.8c1.1,0.1,2.1-0.5,2.5-1.5c0.4-1,0.2-2.2-0.7-2.9c-0.3-0.2-0.7-0.4-1.1-0.6c-0.3,0-0.6,0-0.9,0
				c-0.1,0-0.2,0.1-0.3,0.1c-1.2,0.4-1.9,1.7-1.6,2.8C29.1,65.9,30,66.7,31,66.8z"/>
		</g>
		<g>
			<path class="st1" d="M45.1,71.7c0-0.1,0-0.3,0-0.4c0.2,0,0.3,0,0.5,0c0,0.2,0,0.3,0,0.5c0,6.1,0,12.1,0,18.2c0,0.3,0,0.5,0.1,0.8
				c0.1,0.5,0.5,0.8,1,1c0.2,0,0.5,0,0.7,0c0.8-0.3,1.1-0.9,1.1-1.8c0-3.4,0-6.9,0-10.3c0-0.1,0-0.3,0-0.5c0.2,0,0.3,0,0.5,0
				c0,0.2,0,0.3,0,0.4c0,3.4,0,6.8,0,10.2c0,0.9,0.3,1.5,1.1,1.8c0.2,0,0.5,0,0.7,0c0.8-0.3,1.1-0.9,1.1-1.8c0-6.1,0-12.1,0-18.2
				c0-0.2,0-0.3,0-0.5c0.2,0,0.3,0,0.5,0c0,0.2,0,0.3,0,0.4c0,2.1,0,4.1,0,6.2c0,0.2,0,0.3,0,0.5c0.1,0.6,0.5,1,1.1,0.9
				c0.6,0,1-0.4,1-1.1c0-1.7,0-3.4,0-5.1c0-0.8,0-1.6,0-2.4c0-1.9-1.4-3.3-3.3-3.3c-0.6,0-1.2,0-1.8,0v0.3L49,68.4L49,68.6l0.4,6.4
				l-0.7,0.7l0,0l0,0L48,74.9l0.4-6.4l-0.1-0.2l-0.4-0.8v-0.3c-0.6,0-1.1,0-1.7,0c-1.7,0-2.9,1-3.3,2.6c0,0,0,0.1-0.1,0.1
				c0,2.8,0,5.6,0,8.5c0.2,0.3,0.4,0.6,0.8,0.7c0.7,0.2,1.3-0.2,1.4-1c0-0.2,0-0.3,0-0.5C45.1,75.7,45.1,73.7,45.1,71.7z"/>
			<path class="st1" d="M48.5,66.8c1.1,0.1,2.1-0.5,2.5-1.5c0.4-1,0.2-2.2-0.7-2.9c-0.3-0.2-0.7-0.4-1.1-0.6c-0.3,0-0.6,0-0.9,0
				c-0.1,0-0.2,0.1-0.3,0.1c-1.2,0.4-1.9,1.7-1.6,2.8C46.5,65.9,47.4,66.7,48.5,66.8z"/>
		</g>
		<g>
			<path class="st1" d="M62.6,71.7c0-0.1,0-0.3,0-0.4c0.2,0,0.3,0,0.5,0c0,0.2,0,0.3,0,0.5c0,6.1,0,12.1,0,18.2c0,0.3,0,0.5,0.1,0.8
				c0.1,0.5,0.5,0.8,1,1c0.2,0,0.5,0,0.7,0c0.8-0.3,1.1-0.9,1.1-1.8c0-3.4,0-6.9,0-10.3c0-0.1,0-0.3,0-0.5c0.2,0,0.3,0,0.5,0
				c0,0.2,0,0.3,0,0.4c0,3.4,0,6.8,0,10.2c0,0.9,0.2,1.5,1.1,1.8c0.2,0,0.5,0,0.7,0c0.8-0.3,1.1-0.9,1.1-1.8c0-6.1,0-12.1,0-18.2
				c0-0.2,0-0.3,0-0.5c0.2,0,0.3,0,0.5,0c0,0.2,0,0.3,0,0.4c0,2.1,0,4.1,0,6.2c0,0.2,0,0.3,0,0.5c0.1,0.6,0.5,1,1.1,0.9
				c0.6,0,1-0.4,1-1.1c0-1.7,0-3.4,0-5.1c0-0.8,0-1.6,0-2.4c0-1.9-1.4-3.3-3.3-3.3c-0.6,0-1.2,0-1.8,0v0.3l-0.4,0.8l-0.1,0.2
				l0.4,6.4l-0.7,0.7l0,0l0,0l-0.7-0.7l0.4-6.4l-0.1-0.2l-0.4-0.8v-0.3c-0.6,0-1.1,0-1.7,0c-1.7,0-2.9,1-3.3,2.6c0,0,0,0.1-0.1,0.1
				c0,2.8,0,5.6,0,8.5c0.2,0.3,0.4,0.6,0.8,0.7c0.7,0.2,1.3-0.2,1.4-1c0-0.2,0-0.3,0-0.5C62.6,75.7,62.6,73.7,62.6,71.7z"/>
			<path class="st1" d="M66,66.8c1.1,0.1,2.1-0.5,2.5-1.5c0.4-1,0.2-2.2-0.7-2.9c-0.3-0.2-0.7-0.4-1.1-0.6c-0.3,0-0.6,0-0.9,0
				c-0.1,0-0.2,0.1-0.3,0.1c-1.2,0.4-1.9,1.7-1.6,2.8C64,65.9,64.9,66.7,66,66.8z"/>
		</g>
	</g>
	<g>
		<path class="st1" d="M42.7,21.4c0-0.2,0-0.4,0-0.7c0.3,0,0.5,0,0.8,0c0,0.3,0,0.5,0,0.8c0,10.2,0,20.3,0,30.5c0,0.4,0,0.9,0.1,1.3
			c0.2,0.9,0.9,1.4,1.7,1.7c0.4,0,0.8,0,1.2,0c1.4-0.5,1.9-1.5,1.9-3c0-5.7,0-11.5,0-17.2c0-0.2,0-0.5,0-0.8c0.3,0,0.5,0,0.8,0
			c0,0.3,0,0.5,0,0.7c0,5.7,0,11.4,0,17.2c0,1.5,0.4,2.5,1.9,3.1c0.4,0,0.8,0,1.2,0c1.4-0.5,1.8-1.6,1.8-3c0-10.2,0-20.3,0-30.5
			c0-0.3,0-0.5,0-0.8c0.3,0,0.5,0,0.8,0c0,0.3,0,0.5,0,0.7c0,3.4,0,6.9,0,10.3c0,0.3,0,0.6,0,0.9c0.1,1,0.9,1.6,1.9,1.5
			c1-0.1,1.6-0.7,1.6-1.8c0-2.9,0-5.7,0-8.6c0-1.4,0-2.7,0-4.1c0-3.2-2.3-5.6-5.5-5.6c-1,0-2,0-3,0v0.5L49.3,16l-0.1,0.3l0.6,10.7
			l-1.1,1.2l0,0l0,0l-1.1-1.2l0.6-10.7L48.1,16l-0.6-1.3v-0.5c-1,0-1.9,0-2.9,0c-2.8,0-4.8,1.6-5.5,4.4c0,0.1-0.1,0.1-0.1,0.2
			c0,4.7,0,9.5,0,14.2c0.3,0.5,0.6,1,1.3,1.2c1.2,0.3,2.2-0.4,2.3-1.6c0-0.3,0-0.6,0-0.9C42.7,28.2,42.7,24.8,42.7,21.4z"/>
		<path class="st1" d="M48.3,13.3c1.8,0.2,3.6-0.8,4.3-2.5c0.7-1.7,0.3-3.7-1.2-4.8c-0.5-0.4-1.2-0.6-1.8-0.9c-0.5,0-1.1,0-1.6,0
			c-0.2,0.1-0.4,0.2-0.5,0.2C45.5,5.9,44.2,8,44.7,10C45.1,11.7,46.6,13.1,48.3,13.3z"/>
	</g>
	<path class="st1" d="M77.8,72.5c-0.9,0-1.6-0.7-1.6-1.6V59.3H21.2v11.6c0,0.9-0.7,1.6-1.6,1.6c-0.9,0-1.6-0.7-1.6-1.6V57.8
		c0-0.9,0.7-1.6,1.6-1.6h58.2c0.9,0,1.6,0.7,1.6,1.6v13.1C79.4,71.8,78.7,72.5,77.8,72.5z"/>
</g>
</svg>
