<?xml version="1.0" encoding="utf-8"?>
<!-- Generator: Adobe Illustrator 22.0.0, SVG Export Plug-In . SVG Version: 6.00 Build 0)  -->
<svg version="1.1" id="Слой_1" xmlns="http://www.w3.org/2000/svg" xmlns:xlink="http://www.w3.org/1999/xlink" x="0px" y="0px"
	 viewBox="0 0 100 100" style="enable-background:new 0 0 100 100;" xml:space="preserve">
<style type="text/css">
	.st0{opacity:0.8;}
	.st1{fill:#FFFFFF;}
</style>
<g class="st0">
	<g>
		<g>
			<g>
				<g>
					<path class="st1" d="M31.4,18.7c4.6,0,8.3-3.7,8.3-8.3C39.7,5.8,36,2,31.4,2C26.8,2,23,5.8,23,10.3
						C23,14.9,26.8,18.7,31.4,18.7z"/>
					<path class="st1" d="M70.1,21.7c-0.6-1.7-2.5-2.5-4.1-1.9l-13.9,5.2L52,25.2l-6.8-3.6L42.3,20c-0.2-0.1-0.4-0.2-0.6-0.2
						c0,0-0.1,0-0.1,0c-0.1,0-0.1,0-0.2-0.1c0,0,0,0,0,0c-1-0.2-2-0.3-3-0.2c-1,0-2,0-2.9,0l-8.2,0c-1.2,0-2.3,0-3.5,0
						c-0.3,0-0.5,0-0.7,0c-4.8,0.3-8,3.2-9.2,7.9c0,0.1-0.2,17.5-0.2,26.1c0.6,1,1.2,1.9,2.3,2.1c1.8,0.4,3.3-0.3,4-1.9
						c0.1-0.3,0.2-0.7,0.3-1.1c0.1-0.5,0-1,0-1.6c0-6.2,0-12.3,0-18.5c0-0.4,0-0.8,0-1.3c0.1,0,0.2,0,0.3,0c0.4,0,0.7,0,1.2,0
						c0,0.5,0,1,0,1.5c0,18.4,0,36.9,0,55.3c0,0.8,0,1.6,0.2,2.4c0.3,1.6,1.6,2.5,3,3.1c0.7,0,1.5,0,2.2,0c2.4-0.8,3.3-2.5,3.4-4.8
						c0-0.2,0-0.4,0-0.6c-0.1-10.4,0-20.8,0-31.3c0-0.4,0-0.9,0-1.4c0.1,0,0.1,0,0.2,0c0.5,0,0.9,0,1.4,0c0,0.5,0,0.9,0,1.3
						c0,10.4,0.1,20.8,0,31.2c0,2.7,0.8,4.6,3.4,5.5c0.7,0,1.5,0,2.2,0c2.6-0.9,3.3-2.9,3.3-5.5c0-18.4,0-36.9,0-55.3
						c0-0.5,0-1,0-1.5c0-0.1,0.1-0.3,0.1-0.5c0.2-1,0.4-3.2,0.6-4.1l6.8,3.6l0.5,0.3l1.3,0.7c0.5,0.3,1,0.4,1.5,0.4
						c0.4,0,0.8-0.1,1.1-0.2l6.6-2.5l8.8-3.3C69.9,25.2,70.8,23.4,70.1,21.7z M31.4,20.4h0.1h1.9l-1.1,2.9h-0.7h-0.1h-0.7l-1.1-2.9
						H31.4z M29.4,38l1.3-13.3h0.8h0.8L33.6,38l-2.1,1.7L29.4,38z"/>
				</g>
			</g>
		</g>
	</g>
	<g>
		<path class="st1" d="M85.6,63.6V38.9H51.9v24.6h16.2H85.6z M73.4,46.4h10.7v2.5H73.4V46.4z M73.4,50.9h10.7v2.5H73.4V50.9z
			 M73.4,55.7h10.7v2.4H73.4V55.7z M64.8,42.5c4.3,0,7.7,3.5,7.7,7.7h-7.7V42.5z M54.9,52.3c0-4.3,3.5-7.7,7.7-7.7v7.7h7.7
			c0,4.3-3.5,7.7-7.7,7.7C58.4,60,54.9,56.6,54.9,52.3z"/>
		<path class="st1" d="M86.3,34.2H69.6v-1.7c0-0.6-0.4-1-1-1c-0.6,0-1,0.4-1,1v1.7H50.9c-2,0-3.6,1.6-3.6,3.6v26.9
			c0,2,1.6,3.6,3.6,3.6h16.3v17.6H67v0.6l-7.7,2.3c-0.7,0.3-1,1.2-0.6,1.9c0.2,0.5,0.7,0.8,1.2,0.8c0.2,0,0.4,0,0.6-0.1l6.5-1.7v1.1
			h-1.1v0.8H67h3.2h1v-0.8h-1v-1.1l6.8,1.7c0.2,0.1,0.4,0.1,0.6,0.1c0.5,0,1-0.3,1.3-0.8c0.3-0.7,0.1-1.5-0.6-1.9l-8.1-2.3v-0.6H70
			V68.3h16.3c2,0,3.6-1.6,3.6-3.6V37.8C89.9,35.9,88.3,34.2,86.3,34.2z M86.7,37.8v26.9c0,0.2-0.2,0.4-0.4,0.4H50.9
			c-0.2,0-0.4-0.2-0.4-0.4V37.8c0-0.2,0.2-0.4,0.4-0.4h35.4C86.5,37.4,86.7,37.6,86.7,37.8L86.7,37.8z"/>
	</g>
</g>
</svg>
