<?xml version="1.0" encoding="utf-8"?>
<!-- Generator: Adobe Illustrator 22.0.0, SVG Export Plug-In . SVG Version: 6.00 Build 0)  -->
<svg version="1.1" id="Слой_1" xmlns="http://www.w3.org/2000/svg" xmlns:xlink="http://www.w3.org/1999/xlink" x="0px" y="0px"
	 viewBox="0 0 306 308" style="enable-background:new 0 0 306 308;" xml:space="preserve">
<style type="text/css">
	.st0{fill:#213877;}
</style>
<g>
	<path class="st0" d="M154,305C71.3,305,4,237.7,4,155S71.3,5,154,5s150,67.3,150,150S236.7,305,154,305z M154,8.1
		C73,8.1,7.1,74,7.1,155S73,301.9,154,301.9S300.9,236,300.9,155S235,8.1,154,8.1z"/>
	<path class="st0" d="M154,295.9c-77.7,0-140.9-63.2-140.9-140.9S76.3,14.1,154,14.1S294.9,77.3,294.9,155S231.7,295.9,154,295.9z
		 M154,17.3C78,17.3,16.2,79.1,16.2,155S78,292.8,154,292.8S291.7,231,291.7,155S229.9,17.3,154,17.3z"/>
	<path class="st0" d="M154,286.8c-72.7,0-131.8-59.1-131.8-131.8S81.3,23.3,154,23.3S285.7,82.4,285.7,155S226.6,286.8,154,286.8z
		 M154,26.4C83.1,26.4,25.4,84.1,25.4,155S83.1,283.6,154,283.6S282.6,225.9,282.6,155S224.9,26.4,154,26.4z"/>
	<path class="st0" d="M154,277.6c-67.6,0-122.6-55-122.6-122.6c0-67.6,55-122.6,122.6-122.6s122.6,55,122.6,122.6
		S221.6,277.6,154,277.6z M154,35.6C88.1,35.6,34.5,89.1,34.5,155S88.1,274.5,154,274.5S273.4,220.9,273.4,155S219.9,35.6,154,35.6z
		"/>
	<path class="st0" d="M154,268.5c-62.6,0-113.5-50.9-113.5-113.5S91.4,41.6,154,41.6S267.4,92.5,267.4,155S216.5,268.5,154,268.5z
		 M154,44.7C93.1,44.7,43.6,94.2,43.6,155s49.5,110.3,110.3,110.3S264.2,215.8,264.2,155C264.3,94.2,214.8,44.7,154,44.7z"/>
	<path class="st0" d="M154,259.3c-57.5,0-104.3-46.8-104.3-104.3C49.7,97.5,96.5,50.7,154,50.7S258.3,97.5,258.3,155
		S211.5,259.3,154,259.3z M154,53.8C98.2,53.8,52.8,99.2,52.8,155S98.2,256.2,154,256.2S255.2,210.8,255.2,155S209.8,53.8,154,53.8z
		"/>
	<path class="st0" d="M154,250.2c-52.5,0-95.2-42.7-95.2-95.2s42.7-95.2,95.2-95.2s95.2,42.7,95.2,95.2S206.5,250.2,154,250.2z
		 M154,63c-50.8,0-92.1,41.3-92.1,92c0,50.8,41.3,92.1,92.1,92.1s92.1-41.3,92.1-92.1C246,104.3,204.7,63,154,63z"/>
	<path class="st0" d="M154,241.1c-47.4,0-86-38.6-86-86s38.6-86,86-86s86,38.6,86,86S201.4,241.1,154,241.1z M154,72.1
		c-45.7,0-82.9,37.2-82.9,82.9s37.2,82.9,82.9,82.9s82.9-37.2,82.9-82.9S199.7,72.1,154,72.1z"/>
	<path class="st0" d="M154,231.9c-42.4,0-76.9-34.5-76.9-76.9s34.5-76.9,76.9-76.9s76.9,34.5,76.9,76.9S196.4,231.9,154,231.9z
		 M154,81.3c-40.7,0-73.8,33.1-73.8,73.8s33.1,73.8,73.8,73.8s73.8-33.1,73.8-73.8C227.7,114.3,194.7,81.3,154,81.3z"/>
	<path class="st0" d="M154,222.8c-37.4,0-67.8-30.4-67.8-67.8s30.4-67.8,67.8-67.8s67.8,30.4,67.8,67.8
		C221.7,192.4,191.3,222.8,154,222.8z M154,90.4c-35.6,0-64.6,29-64.6,64.6s29,64.6,64.6,64.6s64.6-29,64.6-64.6
		S189.6,90.4,154,90.4z"/>
	<path class="st0" d="M154,213.6c-32.3,0-58.6-26.3-58.6-58.6s26.3-58.6,58.6-58.6s58.6,26.3,58.6,58.6S186.3,213.6,154,213.6z
		 M154,99.5c-30.6,0-55.5,24.9-55.5,55.5s24.9,55.5,55.5,55.5s55.5-24.9,55.5-55.5S184.6,99.5,154,99.5z"/>
	<path class="st0" d="M154,204.5c-27.3,0-49.5-22.2-49.5-49.5s22.2-49.5,49.5-49.5s49.5,22.2,49.5,49.5S181.3,204.5,154,204.5z
		 M154,108.7c-25.6,0-46.4,20.8-46.4,46.4s20.8,46.4,46.4,46.4s46.4-20.8,46.4-46.4S179.5,108.7,154,108.7z"/>
</g>
</svg>
