<?xml version="1.0" encoding="utf-8"?>
<!-- Generator: Adobe Illustrator 22.0.0, SVG Export Plug-In . SVG Version: 6.00 Build 0)  -->
<svg version="1.1" id="Слой_1" xmlns="http://www.w3.org/2000/svg" xmlns:xlink="http://www.w3.org/1999/xlink" x="0px" y="0px"
	 viewBox="0 0 35 35" style="enable-background:new 0 0 35 35;" xml:space="preserve">
<style type="text/css">
	.st0{fill:#0074C5;}
	.st1{fill:#FFFFFF;}
</style>
<g>
	<ellipse transform="matrix(0.1649 -0.9863 0.9863 0.1649 -2.6412 31.8602)" class="st0" cx="17.5" cy="17.5" rx="16.8" ry="16.8"/>
	<g>
		<path class="st1" d="M12.2,15.7l-2.9,0c-0.5,0-1,0.4-1,1l0.1,8c0,0.5,0.4,1,1,1l2.9,0c0.5,0,1-0.4,1-1l-0.1-8
			C13.2,16.1,12.7,15.7,12.2,15.7z"/>
		<path class="st1" d="M25.3,16.5l-0.2,0c0.8,0,1.5-0.7,1.5-1.6c0-0.8-0.7-1.5-1.6-1.5l-4.9,0c0.6-1,1.4-2.5,1.4-3.8
			c0-2-1.1-3.1-1.8-3.2c-0.7-0.1-1.2,0.3-1.4,0.9c-0.2,0.6,0.2,1.7,0,2.1c-0.2,0.6-1.3,1.5-2.8,3.4c-1.3,1.7-1.1,3.7-1.1,3.7l0,2.7
			l0,2.7l0,1.3c0,0.5,0.4,1,1,1l9.2-0.1c0.6,0,1.1-0.5,1.1-1.1c0-0.6-0.5-1.1-1.1-1.1l0.2,0c0.8,0,1.4-0.6,1.4-1.4
			c0-0.8-0.6-1.4-1.4-1.4l0.5,0c0.8,0,1.4-0.6,1.4-1.4C26.6,17.1,26,16.5,25.3,16.5z"/>
	</g>
</g>
</svg>
