<?xml version="1.0" encoding="utf-8"?>
<!-- Generator: Adobe Illustrator 22.0.0, SVG Export Plug-In . SVG Version: 6.00 Build 0)  -->
<svg version="1.1" id="Слой_1" xmlns="http://www.w3.org/2000/svg" xmlns:xlink="http://www.w3.org/1999/xlink" x="0px" y="0px"
	 viewBox="0 0 269.6 240.3" style="enable-background:new 0 0 269.6 240.3;" xml:space="preserve">
<style type="text/css">
	.st0{fill:#DBE2E8;}
	.st1{fill:#4980E6;}
</style>
<g>
	<g>
		<g>
			<path class="st0" d="M153.2,226.5c1.9-1.9,5-1.9,6.9,0s1.9,5,0,6.9s-5,1.9-6.9,0C151.3,231.5,151.3,228.4,153.2,226.5z"/>
			<path class="st0" d="M124.2,197.5c1.9-1.9,5-1.9,6.9,0s1.9,5,0,6.9s-5,1.9-6.9,0C122.2,202.5,122.3,199.4,124.2,197.5z"/>
			<path class="st0" d="M95.1,168.4c1.9-1.9,5-1.9,6.9,0s1.9,5,0,6.9s-5,1.9-6.9,0S93.2,170.3,95.1,168.4z"/>
			<path class="st0" d="M66.1,139.4c1.9-1.9,5-1.9,6.9,0s1.9,5,0,6.9s-5,1.9-6.9,0S64.2,141.3,66.1,139.4z"/>
			<path class="st0" d="M37,110.3c1.9-1.9,5-1.9,6.9,0s1.9,5,0,6.9s-5,1.9-6.9,0S35.1,112.2,37,110.3z"/>
		</g>
		<g>
			<path class="st0" d="M179.3,200.4c1.9-1.9,5-1.9,6.9,0s1.9,5,0,6.9s-5,1.9-6.9,0S177.4,202.3,179.3,200.4z"/>
			<path class="st0" d="M150.3,171.4c1.9-1.9,5-1.9,6.9,0s1.9,5,0,6.9s-5,1.9-6.9,0S148.4,173.3,150.3,171.4z"/>
			<path class="st0" d="M121.2,142.3c1.9-1.9,5-1.9,6.9,0s1.9,5,0,6.9s-5,1.9-6.9,0C119.3,147.3,119.3,144.2,121.2,142.3z"/>
			<path class="st0" d="M92.2,113.3c1.9-1.9,5-1.9,6.9,0s1.9,5,0,6.9s-5,1.9-6.9,0C90.3,118.3,90.3,115.2,92.2,113.3z"/>
			<path class="st0" d="M63.1,84.2c1.9-1.9,5-1.9,6.9,0s1.9,5,0,6.9s-5,1.9-6.9,0S61.2,86.1,63.1,84.2z"/>
		</g>
		<g>
			<path class="st0" d="M205.4,174.3c1.9-1.9,5-1.9,6.9,0s1.9,5,0,6.9s-5,1.9-6.9,0S203.5,176.2,205.4,174.3z"/>
			<path class="st0" d="M176.4,145.2c1.9-1.9,5-1.9,6.9,0s1.9,5,0,6.9s-5,1.9-6.9,0C174.5,150.3,174.5,147.2,176.4,145.2z"/>
			<path class="st0" d="M147.3,116.2c1.9-1.9,5-1.9,6.9,0s1.9,5,0,6.9s-5,1.9-6.9,0S145.4,118.1,147.3,116.2z"/>
			<path class="st0" d="M118.3,87.2c1.9-1.9,5-1.9,6.9,0s1.9,5,0,6.9s-5,1.9-6.9,0S116.4,89.1,118.3,87.2z"/>
			<path class="st0" d="M89.3,58.1c1.9-1.9,5-1.9,6.9,0s1.9,5,0,6.9s-5,1.9-6.9,0C87.3,63.1,87.3,60,89.3,58.1z"/>
		</g>
		<g>
			<path class="st0" d="M231.5,148.2c1.9-1.9,5-1.9,6.9,0s1.9,5,0,6.9s-5,1.9-6.9,0S229.6,150.1,231.5,148.2z"/>
			<path class="st0" d="M202.5,119.1c1.9-1.9,5-1.9,6.9,0s1.9,5,0,6.9s-5,1.9-6.9,0S200.6,121.1,202.5,119.1z"/>
			<path class="st0" d="M173.4,90.1c1.9-1.9,5-1.9,6.9,0s1.9,5,0,6.9s-5,1.9-6.9,0S171.5,92,173.4,90.1z"/>
			<path class="st0" d="M144.4,61.1c1.9-1.9,5-1.9,6.9,0s1.9,5,0,6.9s-5,1.9-6.9,0S142.5,63,144.4,61.1z"/>
			<path class="st0" d="M115.4,32c1.9-1.9,5-1.9,6.9,0s1.9,5,0,6.9s-5,1.9-6.9,0C113.4,37,113.4,33.9,115.4,32z"/>
		</g>
		<g>
			<path class="st0" d="M257.6,122.1c1.9-1.9,5-1.9,6.9,0s1.9,5,0,6.9s-5,1.9-6.9,0S255.7,124,257.6,122.1z"/>
			<path class="st0" d="M228.6,93c1.9-1.9,5-1.9,6.9,0s1.9,5,0,6.9s-5,1.9-6.9,0S226.7,94.9,228.6,93z"/>
			<path class="st0" d="M199.5,64c1.9-1.9,5-1.9,6.9,0s1.9,5,0,6.9s-5,1.9-6.9,0S197.6,65.9,199.5,64z"/>
			<path class="st0" d="M170.5,34.9c1.9-1.9,5-1.9,6.9,0s1.9,5,0,6.9s-5,1.9-6.9,0C168.6,40,168.6,36.9,170.5,34.9z"/>
			<path class="st0" d="M141.5,5.9c1.9-1.9,5-1.9,6.9,0s1.9,5,0,6.9s-5,1.9-6.9,0C139.5,10.9,139.5,7.8,141.5,5.9z"/>
		</g>
	</g>
	
		<rect x="16.6" y="85.4" transform="matrix(0.7071 -0.7071 0.7071 0.7071 -67.2742 65.1214)" class="st1" width="56.8" height="56.8"/>
</g>
</svg>
